<?xml version="1.0" encoding="UTF-8" standalone="no"?>
<!-- Created with Inkscape (http://www.inkscape.org/) -->

<svg
   xmlns:dc="http://purl.org/dc/elements/1.1/"
   xmlns:cc="http://creativecommons.org/ns#"
   xmlns:rdf="http://www.w3.org/1999/02/22-rdf-syntax-ns#"
   xmlns:svg="http://www.w3.org/2000/svg"
   xmlns="http://www.w3.org/2000/svg"
   xmlns:sodipodi="http://sodipodi.sourceforge.net/DTD/sodipodi-0.dtd"
   xmlns:inkscape="http://www.inkscape.org/namespaces/inkscape"
   width="793.70081"
   height="1122.5197"
   viewBox="0 0 210 297"
   version="1.1"
   id="svg8"
   inkscape:version="0.92.1 r15371"
   sodipodi:docname="broken-key.svg">
  <defs
     id="defs2" />
  <sodipodi:namedview
     id="base"
     pagecolor="#ffffff"
     bordercolor="#666666"
     borderopacity="1.0"
     inkscape:pageopacity="0.0"
     inkscape:pageshadow="2"
     inkscape:zoom="11.2"
     inkscape:cx="15.012838"
     inkscape:cy="18.998955"
     inkscape:document-units="px"
     inkscape:current-layer="layer1"
     showgrid="false"
     units="px"
     showborder="false"
     showguides="true"
     inkscape:guide-bbox="true"
     inkscape:snap-bbox="true"
     inkscape:bbox-paths="true"
     inkscape:bbox-nodes="true"
     inkscape:snap-bbox-edge-midpoints="true"
     inkscape:snap-bbox-midpoints="true"
     inkscape:window-width="1680"
     inkscape:window-height="997"
     inkscape:window-x="-8"
     inkscape:window-y="-8"
     inkscape:window-maximized="1">
    <sodipodi:guide
       position="0,0"
       orientation="1,0"
       id="guide4485"
       inkscape:locked="false"
       inkscape:label=""
       inkscape:color="rgb(0,0,255)" />
    <sodipodi:guide
       position="0,0"
       orientation="0,1"
       id="guide4487"
       inkscape:locked="false"
       inkscape:label=""
       inkscape:color="rgb(0,0,255)" />
    <sodipodi:guide
       position="7.9375,0"
       orientation="1,0"
       id="guide4489"
       inkscape:locked="false"
       inkscape:label=""
       inkscape:color="rgb(0,0,255)" />
    <sodipodi:guide
       position="0,7.9375"
       orientation="0,1"
       id="guide4491"
       inkscape:locked="false"
       inkscape:label=""
       inkscape:color="rgb(0,0,255)" />
    <sodipodi:guide
       position="3.96875,0"
       orientation="1,0"
       id="guide4519"
       inkscape:locked="false"
       inkscape:label=""
       inkscape:color="rgb(0,0,255)" />
  </sodipodi:namedview>
  <metadata
     id="metadata5">
    <rdf:RDF>
      <cc:Work
         rdf:about="">
        <dc:format>image/svg+xml</dc:format>
        <dc:type
           rdf:resource="http://purl.org/dc/dcmitype/StillImage" />
        <dc:title></dc:title>
      </cc:Work>
    </rdf:RDF>
  </metadata>
  <g
     inkscape:label="Layer 1"
     inkscape:groupmode="layer"
     id="layer1">
    <path
       style="fill:#40526b;fill-opacity:1;stroke-width:0.99999994"
       d="m 4.5196956,293.16586 a 2.5395274,5.8822542 75 0 0 -0.389246,0.21449 2.5395274,5.8822542 75 0 0 -0.2764817,0.17412 l 0.338657,1.26388 -0.4389902,0.1187 c -0.461418,0.12481 -0.5163354,0.15021 -0.5832808,0.26703 -0.053184,0.0928 -0.056613,0.16383 -0.015744,0.30863 l 0.035702,0.12525 0.1413218,0.0702 c 0.1999376,0.0994 0.2268761,0.13191 0.2826569,0.3421 0.057035,0.21494 0.047455,0.26638 -0.081066,0.43421 l -0.085986,0.11237 0.025689,0.10386 c 0.014319,0.0573 0.045001,0.1318 0.068343,0.16521 l 1.301e-4,4.8e-4 c 0.048866,0.07 0.1012216,0.10436 0.1962221,0.12934 0.054535,0.0147 0.1539945,-0.006 0.5254885,-0.10336 l 0.4582601,-0.12066 0.029484,0.0462 c 0.087005,0.13635 0.2421039,0.19458 0.4022931,0.15166 0.1640625,-0.044 0.2658558,-0.16706 0.2755608,-0.33329 0.00158,-0.0324 -0.2800732,-1.1185 -0.6263732,-2.41353 z"
       id="path4532"
       inkscape:connector-curvature="0" />
    <path
       style="fill:#40526b;fill-opacity:1;stroke-width:0.99999994"
       d="m 3.7153012,289.06978 c -0.2914649,-0.028 -0.5326335,0.0238 -0.7909556,0.17058 -0.1870497,0.10632 -0.295365,0.19555 -0.4048495,0.33292 -0.2813625,0.35312 -0.3702878,0.77076 -0.2633488,1.2364 0.036645,0.15962 0.232079,0.49325 0.3626242,0.61933 0.1556427,0.15034 0.3504704,0.26806 0.5438961,0.32817 l 0.087781,0.0278 -0.368877,1.37667 -0.030227,0.1128 a 5.8822542,2.5395274 15 0 1 0.326499,-0.0125 5.8822542,2.5395274 15 0 1 0.4443443,0.009 l 0.3481133,-1.29718 0.057867,0.0176 c 0.1607572,0.0495 0.4539791,0.0468 0.666093,-0.006 0.1113705,-0.0278 0.1655414,-0.0529 0.3489151,-0.1601 0.2069173,-0.12096 0.2222798,-0.13243 0.3275528,-0.25409 0.2522793,-0.29164 0.372831,-0.63611 0.3522241,-1.00504 -0.026578,-0.47576 -0.2869439,-0.89069 -0.7108656,-1.13261 -0.1157147,-0.066 -1.1147886,-0.34601 -1.2967874,-0.36352 z m 0.4174002,0.85815 c 0.5181376,0.13955 0.5822867,0.16794 0.7092135,0.31417 0.080629,0.0929 0.1325644,0.22428 0.1445316,0.36508 0.010046,0.11666 -0.044769,0.30958 -0.1180349,0.41455 -0.052734,0.0755 -0.080184,0.0991 -0.19863,0.16827 -0.1256998,0.0735 -0.1486994,0.0811 -0.2656453,0.0909 -0.1124677,0.01 -0.1856564,-0.005 -0.6022313,-0.11644 -0.4126243,-0.11057 -0.4870513,-0.13626 -0.5750457,-0.19794 -0.2347361,-0.1646 -0.3376617,-0.47423 -0.2436203,-0.73402 0.061573,-0.17017 0.2129019,-0.32602 0.3710861,-0.3826 0.1920537,-0.0687 0.2587857,-0.0619 0.7783763,0.078 z"
       id="path4504"
       inkscape:connector-curvature="0" />
    <rect
       style="opacity:1;fill:#ffffff;fill-opacity:0;stroke:none;stroke-width:0.26458332;stroke-miterlimit:4;stroke-dasharray:none;stroke-opacity:1"
       id="rect4527"
       width="7.9375"
       height="7.9375"
       x="0"
       y="289.0625"
       inkscape:export-xdpi="95.999367"
       inkscape:export-ydpi="95.999367" />
  </g>
</svg>
