<?xml version="1.0" encoding="UTF-8" standalone="no"?>
<svg
   xmlns:dc="http://purl.org/dc/elements/1.1/"
   xmlns:cc="http://creativecommons.org/ns#"
   xmlns:rdf="http://www.w3.org/1999/02/22-rdf-syntax-ns#"
   xmlns:svg="http://www.w3.org/2000/svg"
   xmlns="http://www.w3.org/2000/svg"
   id="svg8"
   version="1.1"
   viewBox="0 0 210 297"
   height="1122.5197"
   width="793.70081">
  <defs
     id="defs2" />
  <metadata
     id="metadata5">
    <rdf:RDF>
      <cc:Work
         rdf:about="">
        <dc:format>image/svg+xml</dc:format>
        <dc:type
           rdf:resource="http://purl.org/dc/dcmitype/StillImage" />
        <dc:title></dc:title>
      </cc:Work>
    </rdf:RDF>
  </metadata>
  <g
     id="layer1">
    <path
       id="path4504"
       d="m 2.4377813,296.48272 c -0.0139,-0.0383 -0.0244,-0.118 -0.0234,-0.17705 l 0.002,-0.10736 0.11205,-0.0861 c 0.16758,-0.12885 0.19014,-0.17599 0.19068,-0.39838 5.2e-4,-0.21746 -0.0171,-0.25604 -0.18451,-0.40375 l -0.11841,-0.10447 -0.002,-0.13026 c -0.002,-0.15044 0.02,-0.21817 0.0954,-0.29409 0.0949,-0.0955 0.15455,-0.10557 0.63255,-0.10672 l 0.45433,-10e-4 7e-5,-1.4252 8e-5,-1.42521 -0.092,-0.004 c -0.20239,-0.008 -0.42108,-0.0717 -0.61033,-0.17663 -0.15873,-0.088 -0.43358,-0.35956 -0.51029,-0.50424 -0.22381,-0.4221 -0.24598,-0.84859 -0.0656,-1.26251 0.0702,-0.161 0.15172,-0.27501 0.30488,-0.42612 0.21152,-0.20867 0.43081,-0.32133 0.71959,-0.36971 0.18033,-0.0302 1.21793,-0.018 1.34678,0.0158 0.47209,0.12394 0.83116,0.4574 0.97997,0.91006 0.11539,0.35102 0.0879,0.71462 -0.0803,1.06162 -0.0702,0.14476 -0.0819,0.16019 -0.25046,0.33057 -0.14939,0.15096 -0.19533,0.18896 -0.29572,0.24459 -0.19121,0.10595 -0.47376,0.18442 -0.64184,0.17825 l -0.0603,-0.002 -0.001,2.43735 c -6.8e-4,1.34054 -0.01,2.46258 -0.0199,2.49342 -0.0524,0.15806 -0.18261,0.25063 -0.35246,0.25063 -0.16584,0 -0.30041,-0.0966 -0.34916,-0.25083 l -0.0165,-0.0522 -0.4739,-0.002 c -0.38406,-0.002 -0.48532,-0.008 -0.5342,-0.0363 -0.0853,-0.0487 -0.12701,-0.0956 -0.15609,-0.17586 z m 0.92419,-5.44415 c 0.10096,0.0368 0.17976,0.0423 0.60694,0.0423 0.43127,0 0.50559,-0.005 0.61171,-0.0435 0.11043,-0.0397 0.13042,-0.0531 0.23282,-0.15661 0.0965,-0.0975 0.11707,-0.12709 0.14846,-0.2137 0.0436,-0.12035 0.0469,-0.321 0.007,-0.43111 -0.048,-0.13289 -0.13238,-0.24636 -0.2343,-0.3152 -0.16045,-0.1084 -0.22984,-0.11924 -0.76644,-0.11991 -0.53809,-6.6e-4 -0.60426,0.0102 -0.77198,0.12629 -0.13815,0.0956 -0.24375,0.2854 -0.25918,0.46571 -0.0236,0.27529 0.1555,0.5474 0.42484,0.64564 z"
       style="fill:#40526b;stroke-width:0.99999994;fill-opacity:1" />
    <rect
       y="289.0625"
       x="0"
       height="7.9375"
       width="7.9375"
       id="rect4527"
       style="opacity:1;fill:#ffffff;fill-opacity:0;stroke:none;stroke-width:0.26458332;stroke-miterlimit:4;stroke-dasharray:none;stroke-opacity:1" />
  </g>
</svg>
