<?xml version="1.0" encoding="UTF-8" standalone="no"?>
<!-- Created with Inkscape (http://www.inkscape.org/) -->

<svg
   xmlns:dc="http://purl.org/dc/elements/1.1/"
   xmlns:cc="http://creativecommons.org/ns#"
   xmlns:rdf="http://www.w3.org/1999/02/22-rdf-syntax-ns#"
   xmlns:svg="http://www.w3.org/2000/svg"
   xmlns="http://www.w3.org/2000/svg"
   xmlns:sodipodi="http://sodipodi.sourceforge.net/DTD/sodipodi-0.dtd"
   xmlns:inkscape="http://www.inkscape.org/namespaces/inkscape"
   width="793.70081"
   height="1122.5197"
   viewBox="0 0 210 297"
   version="1.1"
   id="svg8"
   sodipodi:docname="key.svg"
   inkscape:version="0.92.1 r15371">
  <defs
     id="defs2" />
  <sodipodi:namedview
     id="base"
     pagecolor="#ffffff"
     bordercolor="#666666"
     borderopacity="1.0"
     inkscape:pageopacity="0.0"
     inkscape:pageshadow="2"
     inkscape:zoom="7.9195959"
     inkscape:cx="24.633827"
     inkscape:cy="7.8700231"
     inkscape:document-units="px"
     inkscape:current-layer="layer1"
     showgrid="false"
     units="px"
     showborder="false"
     showguides="true"
     inkscape:guide-bbox="true"
     inkscape:snap-bbox="true"
     inkscape:bbox-paths="true"
     inkscape:bbox-nodes="true"
     inkscape:snap-bbox-edge-midpoints="true"
     inkscape:snap-bbox-midpoints="true"
     inkscape:window-width="1680"
     inkscape:window-height="997"
     inkscape:window-x="-8"
     inkscape:window-y="-8"
     inkscape:window-maximized="1">
    <sodipodi:guide
       position="0,0"
       orientation="1,0"
       id="guide4485"
       inkscape:locked="false"
       inkscape:label=""
       inkscape:color="rgb(0,0,255)" />
    <sodipodi:guide
       position="0,0"
       orientation="0,1"
       id="guide4487"
       inkscape:locked="false"
       inkscape:label=""
       inkscape:color="rgb(0,0,255)" />
    <sodipodi:guide
       position="10.583333,0.54334078"
       orientation="1,0"
       id="guide4489"
       inkscape:locked="false"
       inkscape:label=""
       inkscape:color="rgb(0,0,255)" />
    <sodipodi:guide
       position="0,10.583336"
       orientation="0,1"
       id="guide4491"
       inkscape:locked="false"
       inkscape:label=""
       inkscape:color="rgb(0,0,255)" />
    <sodipodi:guide
       position="3.96875,0"
       orientation="1,0"
       id="guide4519"
       inkscape:locked="false"
       inkscape:label=""
       inkscape:color="rgb(0,0,255)" />
  </sodipodi:namedview>
  <metadata
     id="metadata5">
    <rdf:RDF>
      <cc:Work
         rdf:about="">
        <dc:format>image/svg+xml</dc:format>
        <dc:type
           rdf:resource="http://purl.org/dc/dcmitype/StillImage" />
        <dc:title></dc:title>
      </cc:Work>
    </rdf:RDF>
  </metadata>
  <g
     inkscape:label="Layer 1"
     inkscape:groupmode="layer"
     id="layer1">
    <path
       style="fill:#40526b;fill-opacity:1;stroke-width:1"
       d="m 3.2503781,296.31 c -0.018533,-0.0511 -0.032533,-0.15733 -0.0312,-0.23606 l 0.00267,-0.14315 0.1493998,-0.1148 c 0.2234396,-0.1718 0.2535196,-0.23465 0.2542396,-0.53117 6.933e-4,-0.28995 -0.0228,-0.34139 -0.2460129,-0.53833 l -0.1578798,-0.1393 -0.00267,-0.17368 c -0.00267,-0.20058 0.026667,-0.29089 0.1271997,-0.39211 0.1265332,-0.12734 0.2060664,-0.14076 0.8433986,-0.1423 l 0.6057723,-10e-4 9.34e-5,-1.90026 1.066e-4,-1.90028 -0.1226664,-0.005 c -0.2698529,-0.0107 -0.5614391,-0.0956 -0.813772,-0.23551 -0.2116396,-0.11733 -0.5781057,-0.47941 -0.6803855,-0.67232 -0.2984128,-0.5628 -0.3279728,-1.13145 -0.087466,-1.68334 0.0936,-0.21467 0.202293,-0.36668 0.406506,-0.56816 0.2820261,-0.27823 0.5744123,-0.42844 0.9594517,-0.49295 0.2404396,-0.0403 1.6239039,-0.024 1.7957036,0.0211 0.6294523,0.16525 1.1082115,0.60986 1.3066245,1.21341 0.1538531,0.46803 0.1171998,0.95282 -0.1070665,1.41549 -0.0936,0.19301 -0.1091998,0.21359 -0.3339461,0.44076 -0.1991863,0.20128 -0.2604395,0.25195 -0.3942927,0.32612 -0.2549462,0.14127 -0.6316789,0.24589 -0.8557852,0.23767 l -0.0804,-0.003 -0.00133,3.24979 c -9.066e-4,1.78739 -0.013333,3.28344 -0.026533,3.32456 -0.06987,0.21038 -0.2434835,0.33381 -0.4699497,0.33381 -0.2211197,0 -0.400546,-0.1288 -0.4655459,-0.33444 l -0.022,-0.0696 -0.6318656,-0.003 c -0.5120791,-0.003 -0.6470923,-0.0107 -0.7122655,-0.0484 -0.1137331,-0.0649 -0.1693464,-0.12746 -0.2081196,-0.23448 z m 1.2322513,-7.25885 c 0.1346131,0.0491 0.2396796,0.0564 0.809252,0.0564 0.5750257,0 0.6741189,-0.007 0.8156119,-0.058 0.1472398,-0.0529 0.1738931,-0.0708 0.3104262,-0.20881 0.1286664,-0.13 0.1560931,-0.16946 0.1979463,-0.28494 0.058133,-0.16046 0.062533,-0.42799 0.00933,-0.57481 -0.064,-0.17718 -0.1765063,-0.32848 -0.3123994,-0.42026 -0.213933,-0.14454 -0.3064528,-0.15899 -1.0219183,-0.15988 -0.7174521,-8.8e-4 -0.8056787,0.0136 -1.029305,0.16838 -0.1841997,0.12747 -0.3249994,0.38054 -0.3455727,0.62095 -0.031467,0.36705 0.207333,0.72986 0.5664524,0.86085 z"
       id="path4504"
       inkscape:connector-curvature="0"
       inkscape:export-xdpi="95.999367"
       inkscape:export-ydpi="95.999367" />
    <rect
       style="opacity:1;fill:#ffffff;fill-opacity:0;stroke:none;stroke-width:0.26458332;stroke-miterlimit:4;stroke-dasharray:none;stroke-opacity:1"
       id="rect4527"
       width="10.583333"
       height="10.583333"
       x="0"
       y="286.41666"
       inkscape:export-xdpi="480"
       inkscape:export-ydpi="480" />
  </g>
</svg>
