<svg fill="#40526b" height="30" width="30" viewBox="0 0 30 30" xmlns="http://www.w3.org/2000/svg"><path d="m 13,3.028e-4 c -2.77,0 -5,2.23 -5,5 0,2.77 2.23,5 5,5 h 0.5 v 10.5 H 9.5 c -0.55,0 -1,0.45 -1,1 v 1 c 0.4,0 1.53,0.65 1.73,1 0.2,0.35 0.2,1.65 0,2 -0.2,0.35 -1.33,1 -1.73,1 v 1 c 0,0.55 0.45,1 1,1 1.32,-3.03e-4 2.73,0 4,0 0.02,0.82 0.68,1.5 1.5,1.5 0.82,-9e-4 1.48,-0.65 1.5,-1.47 0,-6.31 1.36e-4,-12.82 0,-18.53 h 0.5 c 2.77,0 5,-2.23 5,-5 C 22,2.23 19.77,4.4e-7 17,4.4e-7 Z m 0,3 h 4 c 1.11,0 2,0.89 2,2 0,1.11 -0.89,2 -2,2 h -4 c -1.11,0 -2,-0.89 -2,-2 0,-1.11 0.89,-2 2,-2 z"/></svg>